name rise30.9205peak61.366fall85.3838.mot
datacolumns 19
datarows 18
range 18.82326600000000 18.85160800000000
endheader
time	ground_force1_vx	ground_force1_vy	ground_force1_vz	ground_force1_px	ground_force1_py	ground_force1_pz	ground_force2_vx	ground_force2_vy	ground_force2_vz	ground_force2_px	ground_force2_py	ground_force2_pz	ground_torque1_x	ground_torque1_y	ground_torque1_z	ground_torque2_x	ground_torque2_y	ground_torque2_z	
18.82326600000000	6.96065300000000	684.53685299999995	39.29163000000000	0.23326700000000	0.00000000000000	0.11207200000000	0.00000000000000	0.00000000000000	0.00000000000000	0.00000000000000	0.00000000000000	0.00000000000000	0.00000000000000	16.37346200000000	0.00000000000000	0.00000000000000	0.00000000000000	0.00000000000000	
18.82492600000000	6.56424000000000	685.07454399999995	39.31968900000000	0.23248600000000	0.00000000000000	0.11204500000000	0.00000000000000	0.00000000000000	0.00000000000000	0.00000000000000	0.00000000000000	0.00000000000000	0.00000000000000	16.46351600000000	0.00000000000000	0.00000000000000	0.00000000000000	0.00000000000000	
18.82659800000000	6.15679900000000	685.66199600000004	39.34830000000000	0.23168200000000	0.00000000000000	0.11201900000000	0.00000000000000	0.00000000000000	0.00000000000000	0.00000000000000	0.00000000000000	0.00000000000000	0.00000000000000	16.55611400000000	0.00000000000000	0.00000000000000	0.00000000000000	0.00000000000000	
18.82826700000000	5.73806200000000	686.29920400000003	39.37747300000000	0.23085500000000	0.00000000000000	0.11199300000000	0.00000000000000	0.00000000000000	0.00000000000000	0.00000000000000	0.00000000000000	0.00000000000000	0.00000000000000	16.65122900000000	0.00000000000000	0.00000000000000	0.00000000000000	0.00000000000000	
18.82992800000000	5.30779900000000	686.98619099999996	39.40723100000000	0.23000400000000	0.00000000000000	0.11196800000000	0.00000000000000	0.00000000000000	0.00000000000000	0.00000000000000	0.00000000000000	0.00000000000000	0.00000000000000	16.74883800000000	0.00000000000000	0.00000000000000	0.00000000000000	0.00000000000000	
18.83159900000000	4.86581700000000	687.72301000000004	39.43760600000000	0.22913000000000	0.00000000000000	0.11194400000000	0.00000000000000	0.00000000000000	0.00000000000000	0.00000000000000	0.00000000000000	0.00000000000000	0.00000000000000	16.84892000000000	0.00000000000000	0.00000000000000	0.00000000000000	0.00000000000000	
18.83325900000000	4.41196400000000	688.50973899999997	39.46864400000000	0.22823300000000	0.00000000000000	0.11192000000000	0.00000000000000	0.00000000000000	0.00000000000000	0.00000000000000	0.00000000000000	0.00000000000000	0.00000000000000	16.95145300000000	0.00000000000000	0.00000000000000	0.00000000000000	0.00000000000000	
18.83493300000000	3.94612600000000	689.34648100000004	39.50039800000000	0.22731300000000	0.00000000000000	0.11189700000000	0.00000000000000	0.00000000000000	0.00000000000000	0.00000000000000	0.00000000000000	0.00000000000000	0.00000000000000	17.05641900000000	0.00000000000000	0.00000000000000	0.00000000000000	0.00000000000000	
18.83659400000000	3.46823000000000	690.23335799999995	39.53293300000000	0.22636900000000	0.00000000000000	0.11187400000000	0.00000000000000	0.00000000000000	0.00000000000000	0.00000000000000	0.00000000000000	0.00000000000000	0.00000000000000	17.16379900000000	0.00000000000000	0.00000000000000	0.00000000000000	0.00000000000000	
18.83826000000000	2.97824200000000	691.17051100000003	39.56632200000000	0.22540300000000	0.00000000000000	0.11185200000000	0.00000000000000	0.00000000000000	0.00000000000000	0.00000000000000	0.00000000000000	0.00000000000000	0.00000000000000	17.27357300000000	0.00000000000000	0.00000000000000	0.00000000000000	0.00000000000000	
18.83993000000000	2.47616800000000	692.15809400000001	39.60064800000000	0.22441500000000	0.00000000000000	0.11183000000000	0.00000000000000	0.00000000000000	0.00000000000000	0.00000000000000	0.00000000000000	0.00000000000000	0.00000000000000	17.38572200000000	0.00000000000000	0.00000000000000	0.00000000000000	0.00000000000000	
18.84159700000000	1.96205400000000	693.19627300000002	39.63600100000000	0.22340600000000	0.00000000000000	0.11180900000000	0.00000000000000	0.00000000000000	0.00000000000000	0.00000000000000	0.00000000000000	0.00000000000000	0.00000000000000	17.50022600000000	0.00000000000000	0.00000000000000	0.00000000000000	0.00000000000000	
18.84326100000000	1.43598600000000	694.28521899999998	39.67247900000000	0.22237600000000	0.00000000000000	0.11178800000000	0.00000000000000	0.00000000000000	0.00000000000000	0.00000000000000	0.00000000000000	0.00000000000000	0.00000000000000	17.61706300000000	0.00000000000000	0.00000000000000	0.00000000000000	0.00000000000000	
18.84492900000000	0.89808700000000	695.42510400000003	39.71019100000000	0.22132700000000	0.00000000000000	0.11176800000000	0.00000000000000	0.00000000000000	0.00000000000000	0.00000000000000	0.00000000000000	0.00000000000000	0.00000000000000	17.73620600000000	0.00000000000000	0.00000000000000	0.00000000000000	0.00000000000000	
18.84659300000000	0.34851900000000	696.61609799999997	39.74924900000000	0.22025900000000	0.00000000000000	0.11174700000000	0.00000000000000	0.00000000000000	0.00000000000000	0.00000000000000	0.00000000000000	0.00000000000000	0.00000000000000	17.85763100000000	0.00000000000000	0.00000000000000	0.00000000000000	0.00000000000000	
18.84826200000000	-0.21251900000000	697.85836200000006	39.78977500000000	0.21917400000000	0.00000000000000	0.11172700000000	0.00000000000000	0.00000000000000	0.00000000000000	0.00000000000000	0.00000000000000	0.00000000000000	0.00000000000000	17.98130500000000	0.00000000000000	0.00000000000000	0.00000000000000	0.00000000000000	
18.84993400000000	-0.78478900000000	699.15204300000005	39.83189700000000	0.21807300000000	0.00000000000000	0.11170800000000	0.00000000000000	0.00000000000000	0.00000000000000	0.00000000000000	0.00000000000000	0.00000000000000	0.00000000000000	18.10719600000000	0.00000000000000	0.00000000000000	0.00000000000000	0.00000000000000	
18.85160800000000	-1.36802100000000	700.49727099999996	39.87575000000000	0.21695700000000	0.00000000000000	0.11168800000000	0.00000000000000	0.00000000000000	0.00000000000000	0.00000000000000	0.00000000000000	0.00000000000000	0.00000000000000	18.23526600000000	0.00000000000000	0.00000000000000	0.00000000000000	0.00000000000000	
